<svg height="64" viewBox="0 0 64 64" width="64" xmlns="http://www.w3.org/2000/svg"><path d="m50.2660146 54.4573047c3.7422471-2.445392 4.8438905-6.912358 2.690128-11.6128255-2.8977723-6.3253814-6.0130713-12.8907005-9.8175117-20.7325993-2.3304438-4.8017384-3.9076301-7.8600241-5.6764863-10.8829768-1.8952211-3.23948991-5.6557726-4.16101119-8.6921731-2.21724968-1.2175413.77939709-2.1453609 2.00033718-3.182681 4.08607678-.6318187 1.2694375-1.1493877 2.3070263-2.2713564 4.5545758-3.9460396 7.9047806-5.6785915 11.4059658-7.7918548 15.7911476-.1004335.2083859-.1004335.2083859-.2007654.4165786-2.5209509 5.2314993-3.6706667 7.7921072-4.7740797 10.8580908-1.48170109 4.1159983.4547828 8.5335748 4.5472953 10.4057696 3.325924 1.5214409 6.5392418 1.0138319 10.0957246-1.4358359.4681402-.322326.9505896-.6907684 1.4940071-1.1376475.6077732-.4998019 3.1291031-2.7120231 3.802043-3.276633l2.1128685-1.7727383 1.9437427 1.956701c.0383535.0386091.1151259.1153578.2253905.2247219.1861737.1846535.3961119.3910062.6248386.6134942.6525058.6347081 1.3220584 1.2688915 1.967116 1.8567144.1758824.1602767.3477522.3150752.5150202.4637705.9626052.8557217 1.7394848 1.475848 2.1347207 1.7104864 3.672186 2.181951 6.9963224 2.2581791 10.2540132.1303784zm-19.7687695 2.7273683c-.666769.5483172-1.2814573 1.0177493-1.9019367 1.4449646-5.1827079 3.5697945-10.5881598 4.4236956-15.9947628 1.95045-6.8944844-3.1540081-10.24853605-10.805391-7.69674866-17.8939679 1.19573168-3.3225039 2.40526623-6.016338 5.01434754-11.4307264.10051962-.2085822.10051962-.2085822.20086272-.4167804 2.1293558-4.4185752 3.8701615-7.9364398 7.8009062-15.8105813 1.1486522-2.3010023 1.6654974-3.3371403 2.2955114-4.6029514 1.4767744-2.96935081 3.0118179-4.98935144 5.3196987-6.46671862 5.9165619-3.78750611 13.4955846-1.93027034 17.105732 4.24053272 1.8657483 3.18854 3.5025494 6.3624234 5.8958342 11.2936421 3.8224243 7.8789678 6.955733 14.4822413 9.8741999 20.852796 3.3508737 7.3130964 1.4532965 15.0074309-4.8632696 19.1350257-5.2665917 3.4399391-11.041974 3.3074997-16.599517.0053011-.818754-.4860665-1.8219657-1.2868571-3.0571944-2.3849315-.1862243-.1655467-.376352-.3367896-.5699779-.5132355-.338114-.3081138-.6801906-.6258587-1.0221173-.9485117-.7457659.6468977-1.4750369 1.2771697-1.8015683 1.5456925zm4.389702-5.4816415-2.5412888 3.6883418-2.4434005-3.7539057c-4.231814-6.5015256-5.9012507-9.962177-6.1573325-14.6975488-.202065-3.7412601 1.1372111-6.7879559 4.2743539-8.4604733 3.2654531-1.7408071 6.7260768-1.4064444 9.5528408 1.009109 2.8134708 2.4033931 3.3674643 5.6006682 2.6081121 9.6154882-.8348673 4.411229-2.6877232 8.8173634-5.293285 12.5989888zm-.6021265-13.7143914c.4016413-2.1235434.2083477-3.2391024-.6101973-3.9383405-.928197-.7931717-1.719631-.8696394-2.8327102-.2762589-.8441942.4500686-1.1921692 1.2416708-1.105731 2.8420856.127493 2.3575543.8518863 4.4632136 2.5761866 7.5052672.9086956-1.9855664 1.5813797-4.0664263 1.9724519-6.1327534z" fill="#fd5a5a"/></svg>